<svg height="480pt" viewBox="0 0 480 480" fill = "#fff" width="480pt" xmlns="http://www.w3.org/2000/svg"><path d="m472 360h-8v-24c0-4.078125-3.066406-7.503906-7.121094-7.953125l-16.582031-1.847656c1.855469-39.832031 12.3125-78.792969 30.65625-114.199219 1.429687-2.480469 1.429687-5.535156-.007813-8.011719-1.433593-2.476562-4.082031-3.996093-6.945312-3.988281-23.109375-.667969-45.972656 4.921875-66.167969 16.175781 4.0625-26.515625 12.492188-52.179687 24.953125-75.9375 1.539063-2.464843 1.621094-5.574219.210938-8.117187-1.410156-2.542969-4.085938-4.121094-6.996094-4.121094-30.859375-.644531-60.8125 10.453125-83.800781 31.054688-42.957031-50.726563-106.265625-79.703126-172.734375-79.054688-3.390625.234375-6.261719 2.585938-7.164063 5.863281-.898437 3.273438.367188 6.761719 3.164063 8.695313 18.472656 12.957031 33.816406 29.878906 44.902344 49.53125-58.710938-28.433594-119.960938-8.683594-122.878907-7.691406-3.15625 1.054687-5.328125 3.949218-5.460937 7.273437-.128906 3.324219 1.808594 6.378906 4.867187 7.679687 21.476563 8.78125 41.039063 21.65625 57.601563 37.90625-36.507813-10.261718-74.882813-12.003906-112.167969-5.097656-3.363281.679688-5.921875 3.429688-6.351563 6.835938-.429687 3.40625 1.359376 6.707031 4.449219 8.203125 52.246094 26.121093 55.101563 80.441406 55.015625 93.441406l-27.402344 27.359375h-28.6875c-2.28125 0-4.453124.976562-5.972656 2.679688-1.515625 1.703124-2.234375 3.972656-1.972656 6.242187l3.609375 31.078125h-7.015625c-4.417969 0-8 3.582031-8 8v104c0 4.417969 3.582031 8 8 8h464c4.417969 0 8-3.582031 8-8v-104c0-4.417969-3.582031-8-8-8zm-21.265625-143.457031c-15.710937 33.914062-24.703125 70.546875-26.476563 107.882812l-32.410156-3.601562c-.136718-4.65625-.359375-9.34375-.75-14.054688l-15.945312 1.34375c.335937 4 .566406 7.957031.703125 11.886719h-15.910157c.4375-15.199219 4.132813-50.398438 27.597657-75.503906 16.761719-16.988282 39.347656-26.976563 63.191406-27.953125zm-48.175781-71.832031c-3.546875 7.933593-6.667969 16.046874-9.351563 24.3125-10.007812 2.535156-29.222656 11.457031-48.0625 42.855468l13.710938 8.242188c6.832031-12.574219 16.636719-23.285156 28.558593-31.199219-3.453124 13.617187-6.148437 27.414063-8.0625 41.335937-1.160156 1.117188-2.398437 2.140626-3.496093 3.316407-27.480469 29.386719-31.535157 69.203125-31.925781 86.402343h-63.273438c3.34375-34.464843 22.65625-164.472656 121.902344-175.265624zm-218.679688-47.542969c53.253906 6.378906 102.160156 32.570312 136.984375 73.359375-43.527343 48.863281-54 125.296875-56.261719 149.472656h-20.066406c3.234375-28.542969 3.269532-57.355469.097656-85.902344-6.695312-58.464844-27.554687-105.257812-60.753906-136.929687zm-79.679687 49.71875c25.863281-3.765625 70.402343-4.550781 108.671875 23.359375 21.21875 54.355468 18.898437 114.730468 16.34375 141.824218l-9.863282-6.007812v-10.0625c0-4.417969-3.582031-8-8-8h-16.230468c-4.109375-59.515625-38.425782-112.773438-90.921875-141.113281zm-38.144531 69.113281c-5.53125-7.117188-11.9375-13.515625-19.0625-19.039062 25.34375-2.113282 69.078124-1.914063 107.894531 17.429687 14.226562 22.074219 22.59375 47.40625 24.3125 73.609375h-87.847657c-.773437-19.332031-5.761718-38.261719-14.617187-55.464844 13.808594.738282 27.484375 3.105469 40.738281 7.050782l5.054688-15.203126c-18.359375-5.324218-37.355469-8.144531-56.472656-8.382812zm25.296874 120v-16h-20.6875l16-16h20.6875v16h16v-16h16v16h16v-16h48v16h-32v16h212.207032l64.441406 7.199219v16.800781h-416.871094l-2.792968-24zm372.648438 128h-448v-56h448zm0-72h-448v-16h448zm0 0"/><path d="m264 152h16v16h-16zm0 0"/><path d="m40 424h32v16h-32zm0 0"/><path d="m128 432h32v16h-32zm0 0"/><path d="m304 432h32v16h-32zm0 0"/><path d="m400 424h32v16h-32zm0 0"/><path d="m216 424h32v16h-32zm0 0"/><path d="m288 56c0 30.929688 25.070312 56 56 56s56-25.070312 56-56-25.070312-56-56-56c-30.914062.0351562-55.964844 25.085938-56 56zm96 0c0 22.089844-17.910156 40-40 40s-40-17.910156-40-40 17.910156-40 40-40c22.082031.027344 39.972656 17.917969 40 40zm0 0"/></svg>